<svg xmlns="http://www.w3.org/2000/svg" xmlns:xlink="http://www.w3.org/1999/xlink" width="100" zoomAndPan="magnify" viewBox="0 0 75 74.999997" height="100" preserveAspectRatio="xMidYMid meet" version="1.0"><defs><clipPath id="8b0b7c0b45"><path d="M 27 24.171875 L 48 24.171875 L 48 48 L 27 48 Z M 27 24.171875 " clip-rule="nonzero"/></clipPath><clipPath id="c48a8b6fb9"><path d="M 24.171875 44 L 51.171875 44 L 51.171875 51.171875 L 24.171875 51.171875 Z M 24.171875 44 " clip-rule="nonzero"/></clipPath></defs><path fill="#000000" d="M 39.171875 33.410156 L 41.226562 33.410156 L 41.226562 36.25 L 39.171875 36.25 Z M 39.171875 33.410156 " fill-opacity="1" fill-rule="nonzero"/><path fill="#000000" d="M 32.699219 31.199219 L 32.699219 32.933594 L 42.644531 32.933594 L 42.644531 31.199219 L 37.671875 29.164062 Z M 37.910156 31.277344 C 37.910156 31.433594 37.832031 31.515625 37.671875 31.515625 C 37.515625 31.515625 37.433594 31.433594 37.433594 31.277344 C 37.433594 31.121094 37.515625 31.039062 37.671875 31.039062 C 37.832031 31.039062 37.910156 31.121094 37.910156 31.277344 Z M 37.910156 31.277344 " fill-opacity="1" fill-rule="nonzero"/><path fill="#000000" d="M 36.644531 33.410156 L 38.699219 33.410156 L 38.699219 36.25 L 36.644531 36.25 Z M 36.644531 33.410156 " fill-opacity="1" fill-rule="nonzero"/><path fill="#000000" d="M 34.121094 33.410156 L 36.171875 33.410156 L 36.171875 36.25 L 34.121094 36.25 Z M 34.121094 33.410156 " fill-opacity="1" fill-rule="nonzero"/><path fill="#000000" d="M 32.699219 36.726562 L 42.644531 36.726562 L 42.644531 38.144531 L 32.699219 38.144531 Z M 32.699219 36.726562 " fill-opacity="1" fill-rule="nonzero"/><g clip-path="url(#8b0b7c0b45)"><path fill="#000000" d="M 41.902344 43.621094 C 42.789062 43.214844 43.601562 42.691406 44.335938 42.050781 C 45.074219 41.410156 45.707031 40.679688 46.234375 39.859375 C 46.761719 39.039062 47.164062 38.160156 47.441406 37.222656 C 47.714844 36.289062 47.855469 35.332031 47.855469 34.355469 C 47.855469 28.742188 43.289062 24.171875 37.671875 24.171875 C 32.054688 24.171875 27.488281 28.742188 27.488281 34.355469 C 27.488281 35.332031 27.628906 36.289062 27.90625 37.222656 C 28.179688 38.160156 28.582031 39.039062 29.109375 39.859375 C 29.636719 40.679688 30.269531 41.410156 31.007812 42.050781 C 31.746094 42.691406 32.554688 43.214844 33.445312 43.621094 C 33.46875 43.632812 33.492188 43.648438 33.511719 43.667969 L 37.214844 47.378906 C 37.351562 47.492188 37.503906 47.546875 37.679688 47.546875 C 37.855469 47.542969 38.007812 47.484375 38.140625 47.371094 L 41.832031 43.667969 C 41.851562 43.648438 41.875 43.632812 41.902344 43.621094 Z M 37.671875 43.121094 C 32.839844 43.121094 28.910156 39.1875 28.910156 34.355469 C 28.910156 29.523438 32.839844 25.59375 37.671875 25.59375 C 42.503906 25.59375 46.433594 29.523438 46.433594 34.355469 C 46.433594 39.1875 42.503906 43.121094 37.671875 43.121094 Z M 37.671875 43.121094 " fill-opacity="1" fill-rule="nonzero"/></g><path fill="#000000" d="M 37.671875 26.066406 C 33.101562 26.066406 29.382812 29.785156 29.382812 34.355469 C 29.382812 38.925781 33.101562 42.644531 37.671875 42.644531 C 42.242188 42.644531 45.960938 38.925781 45.960938 34.355469 C 45.960938 29.785156 42.242188 26.066406 37.671875 26.066406 Z M 43.121094 33.171875 C 43.121094 33.332031 43.039062 33.410156 42.882812 33.410156 L 41.699219 33.410156 L 41.699219 36.25 L 42.882812 36.25 C 43.039062 36.25 43.121094 36.332031 43.121094 36.488281 L 43.121094 38.382812 C 43.121094 38.539062 43.039062 38.621094 42.882812 38.621094 L 32.460938 38.621094 C 32.304688 38.621094 32.226562 38.539062 32.226562 38.382812 L 32.226562 36.488281 C 32.226562 36.332031 32.304688 36.25 32.460938 36.25 L 33.644531 36.25 L 33.644531 33.410156 L 32.460938 33.410156 C 32.304688 33.410156 32.226562 33.332031 32.226562 33.171875 L 32.226562 31.039062 C 32.226562 30.933594 32.273438 30.863281 32.371094 30.820312 L 37.582031 28.691406 C 37.640625 28.664062 37.703125 28.664062 37.761719 28.691406 L 42.972656 30.820312 C 43.070312 30.863281 43.121094 30.933594 43.121094 31.039062 Z M 43.121094 33.171875 " fill-opacity="1" fill-rule="nonzero"/><g clip-path="url(#c48a8b6fb9)"><path fill="#000000" d="M 41.527344 44.644531 L 40.15625 46.019531 C 42.152344 46.117188 47.382812 46.507812 47.382812 47.855469 C 47.382812 49.246094 41.574219 49.75 37.671875 49.75 C 33.769531 49.75 27.960938 49.246094 27.960938 47.855469 C 27.960938 46.507812 33.195312 46.117188 35.191406 46.019531 L 33.816406 44.644531 C 27.597656 44.988281 24.171875 46.128906 24.171875 47.855469 C 24.171875 49.933594 29.21875 51.171875 37.671875 51.171875 C 46.125 51.171875 51.171875 49.933594 51.171875 47.855469 C 51.171875 46.128906 47.746094 44.988281 41.527344 44.644531 Z M 41.527344 44.644531 " fill-opacity="1" fill-rule="nonzero"/></g><path fill="#000000" d="M 36.894531 47.726562 L 35.644531 46.476562 C 30.554688 46.667969 28.433594 47.46875 28.433594 47.855469 C 28.433594 48.351562 31.609375 49.277344 37.671875 49.277344 C 43.738281 49.277344 46.910156 48.351562 46.910156 47.855469 C 46.910156 47.46875 44.789062 46.667969 39.699219 46.476562 L 38.464844 47.714844 C 38.238281 47.914062 37.980469 48.015625 37.679688 48.015625 C 37.382812 48.019531 37.117188 47.921875 36.894531 47.726562 Z M 36.894531 47.726562 " fill-opacity="1" fill-rule="nonzero"/></svg>