<svg xmlns="http://www.w3.org/2000/svg" xmlns:xlink="http://www.w3.org/1999/xlink" width="500" zoomAndPan="magnify" viewBox="0 0 375 374.999991" height="500" preserveAspectRatio="xMidYMid meet" version="1.0"><defs><clipPath id="96829f7125"><path d="M 105 78.214844 L 270 78.214844 L 270 268 L 105 268 Z M 105 78.214844 " clip-rule="nonzero"/></clipPath><clipPath id="8587c31b99"><path d="M 78.214844 243 L 296.464844 243 L 296.464844 296.464844 L 78.214844 296.464844 Z M 78.214844 243 " clip-rule="nonzero"/></clipPath></defs><path fill="#ffde59" d="M 199.464844 152.878906 L 216.054688 152.878906 L 216.054688 175.851562 L 199.464844 175.851562 Z M 199.464844 152.878906 " fill-opacity="1" fill-rule="nonzero"/><path fill="#ffde59" d="M 147.132812 135.019531 L 147.132812 149.046875 L 227.542969 149.046875 L 227.542969 135.019531 L 187.339844 118.570312 Z M 189.253906 135.648438 C 189.253906 135.902344 189.203125 136.144531 189.105469 136.378906 C 189.007812 136.613281 188.871094 136.820312 188.691406 137 C 188.511719 137.179688 188.304688 137.320312 188.070312 137.414062 C 187.835938 137.511719 187.589844 137.5625 187.339844 137.5625 C 187.085938 137.5625 186.839844 137.511719 186.605469 137.414062 C 186.371094 137.320312 186.164062 137.179688 185.984375 137 C 185.804688 136.820312 185.667969 136.613281 185.570312 136.378906 C 185.472656 136.144531 185.421875 135.902344 185.421875 135.648438 C 185.421875 135.394531 185.472656 135.148438 185.570312 134.914062 C 185.667969 134.679688 185.804688 134.472656 185.984375 134.292969 C 186.164062 134.113281 186.371094 133.976562 186.605469 133.878906 C 186.839844 133.78125 187.085938 133.734375 187.339844 133.734375 C 187.589844 133.734375 187.835938 133.78125 188.070312 133.878906 C 188.304688 133.976562 188.511719 134.113281 188.691406 134.292969 C 188.871094 134.472656 189.007812 134.679688 189.105469 134.914062 C 189.203125 135.148438 189.253906 135.394531 189.253906 135.648438 Z M 189.253906 135.648438 " fill-opacity="1" fill-rule="nonzero"/><path fill="#ffde59" d="M 179.042969 152.878906 L 195.636719 152.878906 L 195.636719 175.851562 L 179.042969 175.851562 Z M 179.042969 152.878906 " fill-opacity="1" fill-rule="nonzero"/><path fill="#ffde59" d="M 158.621094 152.878906 L 175.214844 152.878906 L 175.214844 175.851562 L 158.621094 175.851562 Z M 158.621094 152.878906 " fill-opacity="1" fill-rule="nonzero"/><path fill="#ffde59" d="M 147.132812 179.679688 L 227.542969 179.679688 L 227.542969 191.167969 L 147.132812 191.167969 Z M 147.132812 179.679688 " fill-opacity="1" fill-rule="nonzero"/><g clip-path="url(#96829f7125)"><path fill="#ffde59" d="M 221.523438 235.421875 C 223.304688 234.601562 225.054688 233.722656 226.773438 232.78125 C 228.488281 231.839844 230.171875 230.839844 231.820312 229.777344 C 233.46875 228.714844 235.074219 227.597656 236.644531 226.421875 C 238.210938 225.246094 239.734375 224.015625 241.214844 222.730469 C 242.695312 221.445312 244.125 220.113281 245.511719 218.726562 C 246.898438 217.339844 248.230469 215.90625 249.511719 214.421875 C 250.796875 212.941406 252.023438 211.417969 253.199219 209.847656 C 254.371094 208.28125 255.488281 206.671875 256.550781 205.023438 C 257.609375 203.375 258.609375 201.691406 259.546875 199.96875 C 260.488281 198.25 261.367188 196.5 262.179688 194.71875 C 262.996094 192.9375 263.746094 191.125 264.433594 189.292969 C 265.117188 187.457031 265.738281 185.597656 266.292969 183.71875 C 266.847656 181.839844 267.332031 179.941406 267.753906 178.027344 C 268.171875 176.113281 268.519531 174.1875 268.804688 172.246094 C 269.085938 170.308594 269.296875 168.359375 269.441406 166.40625 C 269.582031 164.453125 269.65625 162.496094 269.660156 160.535156 C 269.660156 115.140625 232.730469 78.214844 187.339844 78.214844 C 141.945312 78.214844 105.015625 115.140625 105.015625 160.535156 C 105.019531 162.496094 105.09375 164.453125 105.234375 166.40625 C 105.378906 168.359375 105.589844 170.308594 105.875 172.246094 C 106.15625 174.1875 106.503906 176.113281 106.925781 178.027344 C 107.34375 179.941406 107.828125 181.839844 108.382812 183.71875 C 108.9375 185.597656 109.558594 187.457031 110.242188 189.289062 C 110.929688 191.125 111.679688 192.933594 112.496094 194.71875 C 113.3125 196.5 114.1875 198.25 115.128906 199.96875 C 116.066406 201.6875 117.066406 203.375 118.128906 205.023438 C 119.1875 206.671875 120.304688 208.277344 121.476562 209.847656 C 122.652344 211.417969 123.878906 212.941406 125.164062 214.421875 C 126.445312 215.90625 127.78125 217.339844 129.164062 218.726562 C 130.550781 220.109375 131.980469 221.445312 133.460938 222.730469 C 134.941406 224.015625 136.464844 225.246094 138.035156 226.421875 C 139.601562 227.597656 141.207031 228.714844 142.855469 229.777344 C 144.503906 230.839844 146.1875 231.839844 147.90625 232.78125 C 149.621094 233.722656 151.371094 234.601562 153.152344 235.421875 C 153.363281 235.519531 153.550781 235.648438 153.714844 235.808594 L 183.652344 265.8125 C 184.175781 266.253906 184.761719 266.589844 185.40625 266.820312 C 186.050781 267.050781 186.71875 267.160156 187.402344 267.152344 C 188.085938 267.144531 188.75 267.019531 189.386719 266.773438 C 190.027344 266.527344 190.605469 266.179688 191.117188 265.726562 L 220.964844 235.808594 C 221.128906 235.648438 221.3125 235.515625 221.523438 235.421875 Z M 187.339844 231.371094 C 148.277344 231.371094 116.503906 199.59375 116.503906 160.535156 C 116.503906 121.476562 148.277344 89.699219 187.339844 89.699219 C 226.398438 89.699219 258.171875 121.476562 258.171875 160.535156 C 258.171875 199.59375 226.398438 231.371094 187.339844 231.371094 Z M 187.339844 231.371094 " fill-opacity="1" fill-rule="nonzero"/></g><path fill="#ffde59" d="M 187.339844 93.527344 C 150.390625 93.527344 120.332031 123.589844 120.332031 160.535156 C 120.332031 197.480469 150.390625 227.542969 187.339844 227.542969 C 224.285156 227.542969 254.34375 197.480469 254.34375 160.535156 C 254.34375 123.589844 224.289062 93.527344 187.339844 93.527344 Z M 231.371094 150.964844 C 231.371094 151.214844 231.320312 151.460938 231.226562 151.695312 C 231.128906 151.929688 230.988281 152.136719 230.808594 152.316406 C 230.628906 152.496094 230.421875 152.632812 230.1875 152.730469 C 229.953125 152.828125 229.710938 152.878906 229.457031 152.878906 L 219.882812 152.878906 L 219.882812 175.851562 L 229.457031 175.851562 C 229.710938 175.851562 229.953125 175.898438 230.1875 175.996094 C 230.421875 176.09375 230.628906 176.230469 230.808594 176.410156 C 230.988281 176.589844 231.128906 176.796875 231.226562 177.03125 C 231.320312 177.265625 231.371094 177.511719 231.371094 177.765625 L 231.371094 193.082031 C 231.371094 193.335938 231.320312 193.578125 231.226562 193.8125 C 231.128906 194.046875 230.988281 194.253906 230.808594 194.433594 C 230.628906 194.613281 230.421875 194.753906 230.1875 194.851562 C 229.953125 194.945312 229.710938 194.996094 229.457031 194.996094 L 145.21875 194.996094 C 144.964844 194.996094 144.722656 194.945312 144.488281 194.851562 C 144.253906 194.753906 144.046875 194.613281 143.867188 194.433594 C 143.6875 194.253906 143.546875 194.046875 143.449219 193.8125 C 143.355469 193.578125 143.304688 193.335938 143.304688 193.082031 L 143.304688 177.765625 C 143.304688 177.511719 143.355469 177.265625 143.449219 177.03125 C 143.546875 176.796875 143.6875 176.589844 143.867188 176.410156 C 144.046875 176.230469 144.253906 176.09375 144.488281 175.996094 C 144.722656 175.898438 144.964844 175.851562 145.21875 175.851562 L 154.792969 175.851562 L 154.792969 152.878906 L 145.21875 152.878906 C 144.964844 152.878906 144.722656 152.828125 144.488281 152.730469 C 144.253906 152.632812 144.046875 152.496094 143.867188 152.316406 C 143.6875 152.136719 143.546875 151.929688 143.449219 151.695312 C 143.355469 151.460938 143.304688 151.214844 143.304688 150.964844 L 143.304688 133.734375 C 143.304688 133.34375 143.414062 132.988281 143.628906 132.667969 C 143.847656 132.34375 144.132812 132.109375 144.492188 131.960938 L 186.613281 114.730469 C 187.097656 114.535156 187.578125 114.535156 188.0625 114.730469 L 230.183594 131.960938 C 230.542969 132.109375 230.828125 132.34375 231.046875 132.667969 C 231.261719 132.988281 231.371094 133.34375 231.371094 133.734375 Z M 231.371094 150.964844 " fill-opacity="1" fill-rule="nonzero"/><g clip-path="url(#8587c31b99)"><path fill="#ffde59" d="M 218.5 243.699219 L 207.40625 254.816406 C 223.539062 255.613281 265.832031 258.742188 265.832031 269.660156 C 265.832031 280.898438 218.890625 284.976562 187.339844 284.976562 C 155.785156 284.976562 108.84375 280.898438 108.84375 269.660156 C 108.84375 258.742188 151.132812 255.613281 167.273438 254.816406 L 156.175781 243.699219 C 105.90625 246.480469 78.214844 255.6875 78.214844 269.660156 C 78.214844 286.445312 119.007812 296.464844 187.339844 296.464844 C 255.667969 296.464844 296.464844 286.445312 296.464844 269.660156 C 296.464844 255.6875 268.769531 246.480469 218.5 243.699219 Z M 218.5 243.699219 " fill-opacity="1" fill-rule="nonzero"/></g><path fill="#ffde59" d="M 181.039062 268.605469 L 170.9375 258.492188 C 129.796875 260.066406 112.671875 266.523438 112.671875 269.660156 C 112.671875 273.667969 138.316406 281.148438 187.339844 281.148438 C 236.359375 281.148438 262.003906 273.667969 262.003906 269.660156 C 262.003906 266.523438 244.878906 260.066406 203.738281 258.492188 L 193.730469 268.519531 C 193.300781 268.902344 192.835938 269.246094 192.339844 269.546875 C 191.847656 269.847656 191.328125 270.101562 190.789062 270.3125 C 190.246094 270.519531 189.691406 270.675781 189.125 270.785156 C 188.554688 270.890625 187.980469 270.949219 187.402344 270.953125 C 186.824219 270.957031 186.246094 270.90625 185.675781 270.808594 C 185.105469 270.707031 184.550781 270.558594 184.007812 270.359375 C 183.460938 270.160156 182.941406 269.910156 182.441406 269.617188 C 181.945312 269.324219 181.476562 268.984375 181.039062 268.605469 Z M 181.039062 268.605469 " fill-opacity="1" fill-rule="nonzero"/></svg>