<svg xmlns="http://www.w3.org/2000/svg" xmlns:xlink="http://www.w3.org/1999/xlink" width="100" zoomAndPan="magnify" viewBox="0 0 75 74.999997" height="100" preserveAspectRatio="xMidYMid meet" version="1.0"><path fill="#000000" d="M 41.667969 25.65625 L 47.367188 25.65625 L 47.367188 33.550781 L 41.667969 33.550781 Z M 41.667969 25.65625 " fill-opacity="1" fill-rule="nonzero"/><path fill="#000000" d="M 23.683594 19.519531 L 23.683594 24.34375 L 51.316406 24.34375 L 51.316406 19.519531 L 37.5 13.867188 Z M 38.15625 19.738281 C 38.15625 19.917969 38.09375 20.074219 37.964844 20.203125 C 37.835938 20.332031 37.683594 20.394531 37.5 20.394531 C 37.316406 20.394531 37.164062 20.332031 37.035156 20.203125 C 36.90625 20.074219 36.84375 19.917969 36.84375 19.738281 C 36.84375 19.554688 36.90625 19.398438 37.035156 19.273438 C 37.164062 19.144531 37.316406 19.078125 37.5 19.078125 C 37.683594 19.078125 37.835938 19.144531 37.964844 19.273438 C 38.09375 19.398438 38.15625 19.554688 38.15625 19.738281 Z M 38.15625 19.738281 " fill-opacity="1" fill-rule="nonzero"/><path fill="#000000" d="M 34.648438 25.65625 L 40.351562 25.65625 L 40.351562 33.550781 L 34.648438 33.550781 Z M 34.648438 25.65625 " fill-opacity="1" fill-rule="nonzero"/><path fill="#000000" d="M 27.632812 25.65625 L 33.332031 25.65625 L 33.332031 33.550781 L 27.632812 33.550781 Z M 27.632812 25.65625 " fill-opacity="1" fill-rule="nonzero"/><path fill="#000000" d="M 23.683594 34.867188 L 51.316406 34.867188 L 51.316406 38.816406 L 23.683594 38.816406 Z M 23.683594 34.867188 " fill-opacity="1" fill-rule="nonzero"/><path fill="#000000" d="M 49.246094 54.023438 C 50.472656 53.460938 51.652344 52.816406 52.785156 52.085938 C 53.917969 51.355469 54.996094 50.546875 56.015625 49.664062 C 57.03125 48.777344 57.984375 47.828125 58.867188 46.808594 C 59.75 45.789062 60.554688 44.710938 61.285156 43.578125 C 62.011719 42.441406 62.660156 41.261719 63.21875 40.035156 C 63.78125 38.808594 64.25 37.550781 64.632812 36.257812 C 65.011719 34.960938 65.300781 33.648438 65.496094 32.3125 C 65.6875 30.980469 65.785156 29.636719 65.789062 28.289062 C 65.789062 12.691406 53.097656 0 37.5 0 C 21.902344 0 9.210938 12.691406 9.210938 28.289062 C 9.214844 29.636719 9.3125 30.980469 9.503906 32.3125 C 9.699219 33.648438 9.988281 34.960938 10.367188 36.257812 C 10.75 37.550781 11.21875 38.808594 11.78125 40.035156 C 12.34375 41.261719 12.988281 42.441406 13.714844 43.578125 C 14.445312 44.710938 15.25 45.789062 16.132812 46.808594 C 17.015625 47.828125 17.96875 48.777344 18.984375 49.664062 C 20.003906 50.546875 21.082031 51.355469 22.214844 52.085938 C 23.347656 52.816406 24.527344 53.460938 25.753906 54.023438 C 25.824219 54.058594 25.890625 54.101562 25.945312 54.15625 L 36.234375 64.46875 C 36.414062 64.617188 36.613281 64.734375 36.835938 64.8125 C 37.058594 64.890625 37.285156 64.929688 37.523438 64.925781 C 37.757812 64.925781 37.984375 64.882812 38.203125 64.796875 C 38.425781 64.714844 38.621094 64.59375 38.800781 64.4375 L 49.054688 54.15625 C 49.113281 54.101562 49.175781 54.054688 49.246094 54.023438 Z M 37.5 52.632812 C 24.078125 52.632812 13.15625 41.710938 13.15625 28.289062 C 13.15625 14.867188 24.078125 3.949219 37.5 3.949219 C 50.921875 3.949219 61.84375 14.867188 61.84375 28.289062 C 61.84375 41.710938 50.921875 52.632812 37.5 52.632812 Z M 37.5 52.632812 " fill-opacity="1" fill-rule="nonzero"/><path fill="#000000" d="M 37.5 5.261719 C 24.804688 5.261719 14.472656 15.59375 14.472656 28.289062 C 14.472656 40.984375 24.804688 51.316406 37.5 51.316406 C 50.195312 51.316406 60.527344 40.984375 60.527344 28.289062 C 60.527344 15.59375 50.199219 5.261719 37.5 5.261719 Z M 52.632812 25 C 52.632812 25.183594 52.566406 25.335938 52.4375 25.464844 C 52.308594 25.59375 52.15625 25.65625 51.972656 25.65625 L 48.683594 25.65625 L 48.683594 33.550781 L 51.972656 33.550781 C 52.15625 33.550781 52.308594 33.617188 52.4375 33.746094 C 52.566406 33.875 52.632812 34.027344 52.632812 34.210938 L 52.632812 39.472656 C 52.632812 39.65625 52.566406 39.808594 52.4375 39.9375 C 52.308594 40.066406 52.15625 40.132812 51.972656 40.132812 L 23.027344 40.132812 C 22.84375 40.132812 22.691406 40.066406 22.5625 39.9375 C 22.433594 39.808594 22.367188 39.65625 22.367188 39.472656 L 22.367188 34.210938 C 22.367188 34.027344 22.433594 33.875 22.5625 33.746094 C 22.691406 33.617188 22.84375 33.550781 23.027344 33.550781 L 26.316406 33.550781 L 26.316406 25.65625 L 23.027344 25.65625 C 22.84375 25.65625 22.691406 25.59375 22.5625 25.464844 C 22.433594 25.335938 22.367188 25.183594 22.367188 25 L 22.367188 19.078125 C 22.367188 18.785156 22.503906 18.582031 22.777344 18.46875 L 37.25 12.550781 C 37.417969 12.484375 37.582031 12.484375 37.75 12.550781 L 52.222656 18.46875 C 52.496094 18.582031 52.632812 18.785156 52.632812 19.078125 Z M 52.632812 25 " fill-opacity="1" fill-rule="nonzero"/><path fill="#000000" d="M 48.207031 56.867188 L 44.394531 60.6875 C 49.941406 60.960938 64.472656 62.039062 64.472656 65.789062 C 64.472656 69.652344 48.34375 71.050781 37.5 71.050781 C 26.65625 71.050781 10.527344 69.652344 10.527344 65.789062 C 10.527344 62.039062 25.058594 60.960938 30.605469 60.6875 L 26.792969 56.867188 C 9.515625 57.824219 0 60.988281 0 65.789062 C 0 71.558594 14.019531 75 37.5 75 C 60.980469 75 75 71.558594 75 65.789062 C 75 60.988281 65.484375 57.824219 48.207031 56.867188 Z M 48.207031 56.867188 " fill-opacity="1" fill-rule="nonzero"/><path fill="#000000" d="M 35.335938 65.425781 L 31.863281 61.949219 C 17.726562 62.492188 11.84375 64.710938 11.84375 65.789062 C 11.84375 67.167969 20.652344 69.738281 37.5 69.738281 C 54.347656 69.738281 63.15625 67.167969 63.15625 65.789062 C 63.15625 64.710938 57.273438 62.492188 43.136719 61.953125 L 39.695312 65.398438 C 39.398438 65.664062 39.058594 65.867188 38.6875 66.011719 C 38.3125 66.15625 37.921875 66.230469 37.523438 66.234375 C 37.121094 66.234375 36.730469 66.167969 36.355469 66.03125 C 35.976562 65.890625 35.636719 65.691406 35.335938 65.425781 Z M 35.335938 65.425781 " fill-opacity="1" fill-rule="nonzero"/></svg>