<svg xmlns="http://www.w3.org/2000/svg" xmlns:xlink="http://www.w3.org/1999/xlink" width="100" zoomAndPan="magnify" viewBox="0 0 75 74.999997" height="100" preserveAspectRatio="xMidYMid meet" version="1.0"><defs><clipPath id="0b4182725f"><path d="M 20 15.644531 L 54 15.644531 L 54 54 L 20 54 Z M 20 15.644531 " clip-rule="nonzero"/></clipPath><clipPath id="f6d1b891d0"><path d="M 15.644531 48 L 59.144531 48 L 59.144531 59.140625 L 15.644531 59.140625 Z M 15.644531 48 " clip-rule="nonzero"/></clipPath></defs><path fill="#b19032" d="M 39.808594 30.523438 L 43.117188 30.523438 L 43.117188 35.101562 L 39.808594 35.101562 Z M 39.808594 30.523438 " fill-opacity="1" fill-rule="nonzero"/><path fill="#b19032" d="M 29.378906 26.964844 L 29.378906 29.761719 L 45.40625 29.761719 L 45.40625 26.964844 L 37.394531 23.6875 Z M 37.773438 27.089844 C 37.773438 27.195312 37.738281 27.285156 37.664062 27.359375 C 37.589844 27.433594 37.496094 27.472656 37.394531 27.472656 C 37.289062 27.472656 37.199219 27.433594 37.121094 27.359375 C 37.046875 27.285156 37.011719 27.195312 37.011719 27.089844 C 37.011719 26.984375 37.046875 26.894531 37.121094 26.820312 C 37.199219 26.746094 37.289062 26.707031 37.394531 26.707031 C 37.496094 26.707031 37.589844 26.746094 37.664062 26.820312 C 37.738281 26.894531 37.773438 26.984375 37.773438 27.089844 Z M 37.773438 27.089844 " fill-opacity="1" fill-rule="nonzero"/><path fill="#b19032" d="M 35.738281 30.523438 L 39.046875 30.523438 L 39.046875 35.101562 L 35.738281 35.101562 Z M 35.738281 30.523438 " fill-opacity="1" fill-rule="nonzero"/><path fill="#b19032" d="M 31.667969 30.523438 L 34.976562 30.523438 L 34.976562 35.101562 L 31.667969 35.101562 Z M 31.667969 30.523438 " fill-opacity="1" fill-rule="nonzero"/><path fill="#b19032" d="M 29.378906 35.867188 L 45.40625 35.867188 L 45.40625 38.15625 L 29.378906 38.15625 Z M 29.378906 35.867188 " fill-opacity="1" fill-rule="nonzero"/><g clip-path="url(#0b4182725f)"><path fill="#b19032" d="M 44.207031 46.976562 C 44.917969 46.648438 45.601562 46.273438 46.257812 45.851562 C 46.914062 45.429688 47.539062 44.960938 48.128906 44.445312 C 48.722656 43.933594 49.273438 43.382812 49.785156 42.792969 C 50.296875 42.199219 50.765625 41.574219 51.1875 40.917969 C 51.609375 40.257812 51.984375 39.574219 52.308594 38.863281 C 52.636719 38.152344 52.910156 37.421875 53.128906 36.671875 C 53.351562 35.921875 53.515625 35.160156 53.628906 34.382812 C 53.742188 33.609375 53.800781 32.832031 53.800781 32.050781 C 53.800781 23.003906 46.441406 15.644531 37.394531 15.644531 C 28.34375 15.644531 20.984375 23.003906 20.984375 32.050781 C 20.984375 32.832031 21.042969 33.609375 21.15625 34.382812 C 21.269531 35.160156 21.433594 35.921875 21.65625 36.671875 C 21.878906 37.421875 22.148438 38.152344 22.476562 38.863281 C 22.800781 39.574219 23.175781 40.257812 23.597656 40.917969 C 24.019531 41.574219 24.488281 42.199219 25 42.789062 C 25.511719 43.382812 26.0625 43.933594 26.65625 44.445312 C 27.246094 44.960938 27.871094 45.425781 28.527344 45.851562 C 29.183594 46.273438 29.867188 46.648438 30.578125 46.976562 C 30.621094 46.996094 30.65625 47.019531 30.691406 47.054688 L 36.65625 53.035156 C 36.875 53.214844 37.125 53.304688 37.40625 53.300781 C 37.6875 53.296875 37.933594 53.203125 38.144531 53.015625 L 44.09375 47.054688 C 44.128906 47.019531 44.164062 46.996094 44.207031 46.976562 Z M 37.394531 46.167969 C 29.609375 46.167969 23.273438 39.835938 23.273438 32.050781 C 23.273438 24.265625 29.609375 17.933594 37.394531 17.933594 C 45.175781 17.933594 51.511719 24.265625 51.511719 32.050781 C 51.511719 39.835938 45.175781 46.167969 37.394531 46.167969 Z M 37.394531 46.167969 " fill-opacity="1" fill-rule="nonzero"/></g><path fill="#b19032" d="M 37.394531 18.695312 C 30.027344 18.695312 24.039062 24.6875 24.039062 32.050781 C 24.039062 39.414062 30.027344 45.40625 37.394531 45.40625 C 44.757812 45.40625 50.746094 39.414062 50.746094 32.050781 C 50.746094 24.6875 44.757812 18.695312 37.394531 18.695312 Z M 46.167969 30.144531 C 46.167969 30.246094 46.132812 30.335938 46.058594 30.414062 C 45.984375 30.488281 45.894531 30.523438 45.789062 30.523438 L 43.878906 30.523438 L 43.878906 35.101562 L 45.789062 35.101562 C 45.894531 35.101562 45.984375 35.140625 46.058594 35.214844 C 46.132812 35.289062 46.167969 35.378906 46.167969 35.484375 L 46.167969 38.539062 C 46.167969 38.644531 46.132812 38.734375 46.058594 38.808594 C 45.984375 38.882812 45.894531 38.917969 45.789062 38.917969 L 28.996094 38.917969 C 28.890625 38.917969 28.800781 38.882812 28.726562 38.808594 C 28.652344 38.734375 28.617188 38.644531 28.617188 38.539062 L 28.617188 35.484375 C 28.617188 35.378906 28.652344 35.289062 28.726562 35.214844 C 28.800781 35.140625 28.890625 35.101562 28.996094 35.101562 L 30.90625 35.101562 L 30.90625 30.523438 L 28.996094 30.523438 C 28.890625 30.523438 28.800781 30.488281 28.726562 30.414062 C 28.652344 30.335938 28.617188 30.246094 28.617188 30.144531 L 28.617188 26.707031 C 28.617188 26.539062 28.695312 26.421875 28.851562 26.355469 L 37.246094 22.921875 C 37.34375 22.882812 37.441406 22.882812 37.539062 22.921875 L 45.933594 26.355469 C 46.089844 26.421875 46.167969 26.539062 46.167969 26.707031 Z M 46.167969 30.144531 " fill-opacity="1" fill-rule="nonzero"/><g clip-path="url(#f6d1b891d0)"><path fill="#b19032" d="M 43.601562 48.625 L 41.390625 50.84375 C 44.609375 51 53.039062 51.625 53.039062 53.800781 C 53.039062 56.039062 43.679688 56.851562 37.394531 56.851562 C 31.105469 56.851562 21.746094 56.039062 21.746094 53.800781 C 21.746094 51.625 30.175781 51 33.394531 50.84375 L 31.183594 48.625 C 21.160156 49.179688 15.644531 51.015625 15.644531 53.800781 C 15.644531 57.144531 23.773438 59.144531 37.394531 59.144531 C 51.011719 59.144531 59.144531 57.144531 59.144531 53.800781 C 59.144531 51.015625 53.625 49.179688 43.601562 48.625 Z M 43.601562 48.625 " fill-opacity="1" fill-rule="nonzero"/></g><path fill="#b19032" d="M 36.136719 53.589844 L 34.125 51.574219 C 25.925781 51.886719 22.511719 53.175781 22.511719 53.800781 C 22.511719 54.597656 27.621094 56.089844 37.394531 56.089844 C 47.164062 56.089844 52.273438 54.597656 52.273438 53.800781 C 52.273438 53.175781 48.863281 51.886719 40.660156 51.574219 L 38.667969 53.574219 C 38.492188 53.726562 38.296875 53.847656 38.082031 53.929688 C 37.863281 54.011719 37.636719 54.054688 37.40625 54.058594 C 37.171875 54.058594 36.945312 54.019531 36.726562 53.941406 C 36.511719 53.859375 36.3125 53.742188 36.136719 53.589844 Z M 36.136719 53.589844 " fill-opacity="1" fill-rule="nonzero"/></svg>