<svg xmlns="http://www.w3.org/2000/svg" xmlns:xlink="http://www.w3.org/1999/xlink" width="50" zoomAndPan="magnify" viewBox="0 0 37.5 61.499996" height="82" preserveAspectRatio="xMidYMid meet" version="1.0"><defs><clipPath id="fb28780aa5"><path d="M 10 19.980469 L 27 19.980469 L 27 39 L 10 39 Z M 10 19.980469 " clip-rule="nonzero"/></clipPath><clipPath id="fac4c339e8"><path d="M 7.820312 36 L 29.570312 36 L 29.570312 41.730469 L 7.820312 41.730469 Z M 7.820312 36 " clip-rule="nonzero"/></clipPath></defs><path fill="#000000" d="M 19.90625 27.421875 L 21.558594 27.421875 L 21.558594 29.710938 L 19.90625 29.710938 Z M 19.90625 27.421875 " fill-opacity="1" fill-rule="nonzero"/><path fill="#000000" d="M 14.691406 25.640625 L 14.691406 27.039062 L 22.703125 27.039062 L 22.703125 25.640625 L 18.695312 24 Z M 18.886719 25.703125 C 18.886719 25.828125 18.824219 25.894531 18.695312 25.894531 C 18.570312 25.894531 18.503906 25.828125 18.503906 25.703125 C 18.503906 25.574219 18.570312 25.511719 18.695312 25.511719 C 18.824219 25.511719 18.886719 25.574219 18.886719 25.703125 Z M 18.886719 25.703125 " fill-opacity="1" fill-rule="nonzero"/><path fill="#000000" d="M 17.871094 27.421875 L 19.523438 27.421875 L 19.523438 29.710938 L 17.871094 29.710938 Z M 17.871094 27.421875 " fill-opacity="1" fill-rule="nonzero"/><path fill="#000000" d="M 15.835938 27.421875 L 17.488281 27.421875 L 17.488281 29.710938 L 15.835938 29.710938 Z M 15.835938 27.421875 " fill-opacity="1" fill-rule="nonzero"/><path fill="#000000" d="M 14.691406 30.089844 L 22.703125 30.089844 L 22.703125 31.234375 L 14.691406 31.234375 Z M 14.691406 30.089844 " fill-opacity="1" fill-rule="nonzero"/><g clip-path="url(#fb28780aa5)"><path fill="#000000" d="M 22.101562 35.644531 C 22.816406 35.316406 23.472656 34.898438 24.066406 34.382812 C 24.660156 33.867188 25.167969 33.277344 25.59375 32.617188 C 26.019531 31.957031 26.34375 31.246094 26.566406 30.492188 C 26.785156 29.738281 26.898438 28.96875 26.898438 28.183594 C 26.898438 23.660156 23.21875 19.980469 18.695312 19.980469 C 14.171875 19.980469 10.492188 23.660156 10.492188 28.183594 C 10.492188 28.96875 10.605469 29.738281 10.828125 30.492188 C 11.050781 31.246094 11.375 31.957031 11.800781 32.617188 C 12.222656 33.277344 12.734375 33.867188 13.328125 34.382812 C 13.921875 34.898438 14.574219 35.316406 15.289062 35.644531 C 15.308594 35.65625 15.328125 35.667969 15.34375 35.683594 L 18.328125 38.675781 C 18.4375 38.765625 18.5625 38.808594 18.703125 38.808594 C 18.84375 38.804688 18.96875 38.757812 19.074219 38.667969 L 22.046875 35.683594 C 22.0625 35.667969 22.082031 35.65625 22.101562 35.644531 Z M 18.695312 35.242188 C 14.804688 35.242188 11.636719 32.074219 11.636719 28.183594 C 11.636719 24.289062 14.804688 21.125 18.695312 21.125 C 22.589844 21.125 25.753906 24.289062 25.753906 28.183594 C 25.753906 32.074219 22.589844 35.242188 18.695312 35.242188 Z M 18.695312 35.242188 " fill-opacity="1" fill-rule="nonzero"/></g><path fill="#000000" d="M 18.695312 21.503906 C 15.015625 21.503906 12.019531 24.5 12.019531 28.183594 C 12.019531 31.863281 15.015625 34.859375 18.695312 34.859375 C 22.378906 34.859375 25.375 31.863281 25.375 28.183594 C 25.375 24.5 22.378906 21.503906 18.695312 21.503906 Z M 23.085938 27.230469 C 23.085938 27.355469 23.019531 27.421875 22.894531 27.421875 L 21.941406 27.421875 L 21.941406 29.710938 L 22.894531 29.710938 C 23.019531 29.710938 23.085938 29.773438 23.085938 29.898438 L 23.085938 31.425781 C 23.085938 31.554688 23.019531 31.617188 22.894531 31.617188 L 14.5 31.617188 C 14.371094 31.617188 14.308594 31.554688 14.308594 31.425781 L 14.308594 29.898438 C 14.308594 29.773438 14.371094 29.710938 14.5 29.710938 L 15.453125 29.710938 L 15.453125 27.421875 L 14.5 27.421875 C 14.371094 27.421875 14.308594 27.355469 14.308594 27.230469 L 14.308594 25.511719 C 14.308594 25.425781 14.347656 25.367188 14.425781 25.335938 L 18.625 23.617188 C 18.671875 23.597656 18.71875 23.597656 18.769531 23.617188 L 22.964844 25.335938 C 23.042969 25.367188 23.085938 25.425781 23.085938 25.511719 Z M 23.085938 27.230469 " fill-opacity="1" fill-rule="nonzero"/><g clip-path="url(#fac4c339e8)"><path fill="#000000" d="M 21.800781 36.472656 L 20.695312 37.578125 C 22.304688 37.65625 26.519531 37.96875 26.519531 39.058594 C 26.519531 40.179688 21.839844 40.585938 18.695312 40.585938 C 15.550781 40.585938 10.875 40.179688 10.875 39.058594 C 10.875 37.96875 15.089844 37.660156 16.695312 37.578125 L 15.589844 36.472656 C 10.582031 36.75 7.820312 37.664062 7.820312 39.058594 C 7.820312 40.730469 11.886719 41.730469 18.695312 41.730469 C 25.503906 41.730469 29.570312 40.730469 29.570312 39.058594 C 29.570312 37.664062 26.8125 36.75 21.800781 36.472656 Z M 21.800781 36.472656 " fill-opacity="1" fill-rule="nonzero"/></g><path fill="#000000" d="M 18.070312 38.953125 L 17.0625 37.945312 C 12.960938 38.101562 11.253906 38.746094 11.253906 39.058594 C 11.253906 39.457031 13.8125 40.203125 18.695312 40.203125 C 23.582031 40.203125 26.136719 39.457031 26.136719 39.058594 C 26.136719 38.746094 24.429688 38.101562 20.332031 37.945312 L 19.332031 38.945312 C 19.152344 39.105469 18.941406 39.183594 18.703125 39.1875 C 18.460938 39.1875 18.25 39.109375 18.070312 38.953125 Z M 18.070312 38.953125 " fill-opacity="1" fill-rule="nonzero"/></svg>