<svg xmlns="http://www.w3.org/2000/svg" xmlns:xlink="http://www.w3.org/1999/xlink" width="50" zoomAndPan="magnify" viewBox="0 0 37.5 61.499996" height="82" preserveAspectRatio="xMidYMid meet" version="1.0"><defs><g/><clipPath id="a449d23cbd"><path d="M 0 0.15625 L 37.007812 0.15625 L 37.007812 60.847656 L 0 60.847656 Z M 0 0.15625 " clip-rule="nonzero"/></clipPath><clipPath id="b40af92d44"><path d="M 2 18.847656 L 20 18.847656 L 20 38 L 2 38 Z M 2 18.847656 " clip-rule="nonzero"/></clipPath><clipPath id="1a43d75299"><path d="M 0 35 L 21.75 35 L 21.75 40.597656 L 0 40.597656 Z M 0 35 " clip-rule="nonzero"/></clipPath></defs><g clip-path="url(#a449d23cbd)"><path fill="#ffffff" d="M 0 0.15625 L 37.5 0.15625 L 37.5 69.15625 L 0 69.15625 Z M 0 0.15625 " fill-opacity="1" fill-rule="nonzero"/><path fill="#ffffff" d="M 0 0.15625 L 37.5 0.15625 L 37.5 61.65625 L 0 61.65625 Z M 0 0.15625 " fill-opacity="1" fill-rule="nonzero"/><path fill="#ffffff" d="M 0 0.15625 L 37.5 0.15625 L 37.5 61.65625 L 0 61.65625 Z M 0 0.15625 " fill-opacity="1" fill-rule="nonzero"/></g><path fill="#b19032" d="M 12.082031 26.285156 L 13.738281 26.285156 L 13.738281 28.574219 L 12.082031 28.574219 Z M 12.082031 26.285156 " fill-opacity="1" fill-rule="nonzero"/><path fill="#b19032" d="M 6.867188 24.507812 L 6.867188 25.90625 L 14.882812 25.90625 L 14.882812 24.507812 L 10.875 22.867188 Z M 11.066406 24.570312 C 11.066406 24.695312 11.003906 24.761719 10.875 24.761719 C 10.746094 24.761719 10.683594 24.695312 10.683594 24.570312 C 10.683594 24.441406 10.746094 24.378906 10.875 24.378906 C 11.003906 24.378906 11.066406 24.441406 11.066406 24.570312 Z M 11.066406 24.570312 " fill-opacity="1" fill-rule="nonzero"/><path fill="#b19032" d="M 10.046875 26.285156 L 11.703125 26.285156 L 11.703125 28.574219 L 10.046875 28.574219 Z M 10.046875 26.285156 " fill-opacity="1" fill-rule="nonzero"/><path fill="#b19032" d="M 8.011719 26.285156 L 9.667969 26.285156 L 9.667969 28.574219 L 8.011719 28.574219 Z M 8.011719 26.285156 " fill-opacity="1" fill-rule="nonzero"/><path fill="#b19032" d="M 6.867188 28.957031 L 14.882812 28.957031 L 14.882812 30.101562 L 6.867188 30.101562 Z M 6.867188 28.957031 " fill-opacity="1" fill-rule="nonzero"/><g clip-path="url(#b40af92d44)"><path fill="#b19032" d="M 14.28125 34.511719 C 14.996094 34.183594 15.648438 33.761719 16.242188 33.25 C 16.835938 32.734375 17.347656 32.144531 17.773438 31.484375 C 18.199219 30.820312 18.519531 30.113281 18.742188 29.359375 C 18.964844 28.605469 19.078125 27.835938 19.078125 27.050781 C 19.078125 22.527344 15.398438 18.847656 10.875 18.847656 C 6.351562 18.847656 2.671875 22.527344 2.671875 27.050781 C 2.671875 27.835938 2.785156 28.605469 3.007812 29.359375 C 3.230469 30.113281 3.550781 30.820312 3.976562 31.484375 C 4.402344 32.144531 4.914062 32.734375 5.507812 33.246094 C 6.101562 33.761719 6.753906 34.183594 7.46875 34.511719 C 7.488281 34.523438 7.507812 34.535156 7.523438 34.550781 L 10.507812 37.542969 C 10.617188 37.632812 10.742188 37.675781 10.882812 37.675781 C 11.023438 37.671875 11.144531 37.625 11.25 37.53125 L 14.226562 34.550781 C 14.242188 34.535156 14.261719 34.523438 14.28125 34.511719 Z M 10.875 34.109375 C 6.984375 34.109375 3.816406 30.941406 3.816406 27.050781 C 3.816406 23.15625 6.984375 19.992188 10.875 19.992188 C 14.765625 19.992188 17.933594 23.15625 17.933594 27.050781 C 17.933594 30.941406 14.765625 34.109375 10.875 34.109375 Z M 10.875 34.109375 " fill-opacity="1" fill-rule="nonzero"/></g><path fill="#b19032" d="M 10.875 20.371094 C 7.191406 20.371094 4.199219 23.367188 4.199219 27.050781 C 4.199219 30.730469 7.191406 33.726562 10.875 33.726562 C 14.558594 33.726562 17.550781 30.730469 17.550781 27.050781 C 17.550781 23.367188 14.558594 20.371094 10.875 20.371094 Z M 15.261719 26.097656 C 15.261719 26.222656 15.199219 26.285156 15.074219 26.285156 L 14.117188 26.285156 L 14.117188 28.574219 L 15.074219 28.574219 C 15.199219 28.574219 15.261719 28.640625 15.261719 28.765625 L 15.261719 30.292969 C 15.261719 30.421875 15.199219 30.484375 15.074219 30.484375 L 6.675781 30.484375 C 6.550781 30.484375 6.488281 30.421875 6.488281 30.292969 L 6.488281 28.765625 C 6.488281 28.640625 6.550781 28.574219 6.675781 28.574219 L 7.632812 28.574219 L 7.632812 26.285156 L 6.675781 26.285156 C 6.550781 26.285156 6.488281 26.222656 6.488281 26.097656 L 6.488281 24.378906 C 6.488281 24.292969 6.527344 24.234375 6.605469 24.203125 L 10.800781 22.484375 C 10.851562 22.464844 10.898438 22.464844 10.949219 22.484375 L 15.144531 24.203125 C 15.222656 24.234375 15.261719 24.292969 15.261719 24.378906 Z M 15.261719 26.097656 " fill-opacity="1" fill-rule="nonzero"/><g clip-path="url(#1a43d75299)"><path fill="#b19032" d="M 13.980469 35.335938 L 12.875 36.445312 C 14.484375 36.523438 18.699219 36.835938 18.699219 37.925781 C 18.699219 39.042969 14.019531 39.449219 10.875 39.449219 C 7.730469 39.449219 3.050781 39.042969 3.050781 37.925781 C 3.050781 36.835938 7.265625 36.523438 8.875 36.445312 L 7.769531 35.335938 C 2.757812 35.613281 0 36.53125 0 37.925781 C 0 39.597656 4.066406 40.597656 10.875 40.597656 C 17.683594 40.597656 21.75 39.597656 21.75 37.925781 C 21.75 36.53125 18.992188 35.613281 13.980469 35.335938 Z M 13.980469 35.335938 " fill-opacity="1" fill-rule="nonzero"/></g><path fill="#b19032" d="M 10.246094 37.820312 L 9.242188 36.8125 C 5.140625 36.96875 3.433594 37.613281 3.433594 37.925781 C 3.433594 38.324219 5.988281 39.070312 10.875 39.070312 C 15.761719 39.070312 18.316406 38.324219 18.316406 37.925781 C 18.316406 37.613281 16.609375 36.96875 12.507812 36.8125 L 11.511719 37.8125 C 11.332031 37.972656 11.121094 38.050781 10.882812 38.054688 C 10.640625 38.054688 10.429688 37.976562 10.246094 37.820312 Z M 10.246094 37.820312 " fill-opacity="1" fill-rule="nonzero"/><g fill="#b19032" fill-opacity="1"><g transform="translate(16.993932, 34.208116)"><g><path d="M 0.84375 -0.453125 L 1.09375 -1.4375 L 1.53125 -1.4375 L 1.53125 0 L 1.25 0 L 1.25 -1.125 L 0.96875 0 L 0.703125 0 L 0.40625 -1.125 L 0.40625 0 L 0.140625 0 L 0.140625 -1.4375 L 0.578125 -1.4375 Z M 0.84375 -0.453125 "/></g></g></g><g fill="#b19032" fill-opacity="1"><g transform="translate(18.659944, 34.208116)"><g><path d="M 0.40625 -0.5 C 0.40625 -0.425781 0.40625 -0.375 0.40625 -0.34375 C 0.414062 -0.3125 0.425781 -0.285156 0.4375 -0.265625 C 0.445312 -0.242188 0.460938 -0.222656 0.484375 -0.203125 C 0.515625 -0.191406 0.546875 -0.1875 0.578125 -0.1875 C 0.628906 -0.1875 0.671875 -0.195312 0.703125 -0.21875 C 0.742188 -0.25 0.769531 -0.285156 0.78125 -0.328125 C 0.800781 -0.359375 0.8125 -0.441406 0.8125 -0.578125 L 0.8125 -1.03125 L 1.078125 -1.03125 L 1.078125 0 L 0.828125 0 L 0.828125 -0.15625 C 0.785156 -0.09375 0.734375 -0.046875 0.671875 -0.015625 C 0.609375 0.015625 0.546875 0.03125 0.484375 0.03125 C 0.421875 0.03125 0.363281 0.0195312 0.3125 0 C 0.257812 -0.03125 0.21875 -0.0664062 0.1875 -0.109375 C 0.164062 -0.140625 0.148438 -0.175781 0.140625 -0.21875 C 0.140625 -0.257812 0.140625 -0.3125 0.140625 -0.375 L 0.140625 -1.03125 L 0.40625 -1.03125 Z M 0.40625 -0.5 "/></g></g></g><g fill="#b19032" fill-opacity="1"><g transform="translate(19.881954, 34.208116)"><g><path d="M 0.515625 -1.0625 C 0.648438 -1.0625 0.753906 -1.039062 0.828125 -1 C 0.898438 -0.957031 0.953125 -0.882812 0.984375 -0.78125 L 0.71875 -0.734375 C 0.707031 -0.773438 0.6875 -0.804688 0.65625 -0.828125 C 0.625 -0.847656 0.582031 -0.859375 0.53125 -0.859375 C 0.40625 -0.859375 0.34375 -0.832031 0.34375 -0.78125 C 0.34375 -0.75 0.359375 -0.722656 0.390625 -0.703125 C 0.429688 -0.691406 0.492188 -0.675781 0.578125 -0.65625 C 0.671875 -0.632812 0.742188 -0.613281 0.796875 -0.59375 C 0.859375 -0.570312 0.910156 -0.539062 0.953125 -0.5 C 0.992188 -0.457031 1.015625 -0.398438 1.015625 -0.328125 C 1.015625 -0.265625 1 -0.207031 0.96875 -0.15625 C 0.9375 -0.101562 0.882812 -0.0546875 0.8125 -0.015625 C 0.738281 0.015625 0.648438 0.03125 0.546875 0.03125 C 0.421875 0.03125 0.3125 0.00390625 0.21875 -0.046875 C 0.125 -0.0976562 0.0664062 -0.179688 0.046875 -0.296875 L 0.3125 -0.34375 C 0.34375 -0.226562 0.421875 -0.171875 0.546875 -0.171875 C 0.585938 -0.171875 0.628906 -0.175781 0.671875 -0.1875 C 0.710938 -0.207031 0.734375 -0.238281 0.734375 -0.28125 C 0.734375 -0.3125 0.722656 -0.332031 0.703125 -0.34375 C 0.691406 -0.351562 0.664062 -0.363281 0.625 -0.375 C 0.488281 -0.40625 0.382812 -0.429688 0.3125 -0.453125 C 0.25 -0.472656 0.191406 -0.503906 0.140625 -0.546875 C 0.0976562 -0.597656 0.078125 -0.660156 0.078125 -0.734375 C 0.078125 -0.847656 0.117188 -0.929688 0.203125 -0.984375 C 0.285156 -1.035156 0.390625 -1.0625 0.515625 -1.0625 Z M 0.515625 -1.0625 "/></g></g></g><g fill="#b19032" fill-opacity="1"><g transform="translate(20.993962, 34.208116)"><g><path d="M 0.546875 -1.0625 C 0.703125 -1.0625 0.820312 -1.003906 0.90625 -0.890625 C 0.988281 -0.785156 1.03125 -0.632812 1.03125 -0.4375 L 0.34375 -0.4375 C 0.34375 -0.375 0.363281 -0.316406 0.40625 -0.265625 C 0.445312 -0.210938 0.5 -0.1875 0.5625 -0.1875 C 0.613281 -0.1875 0.648438 -0.195312 0.671875 -0.21875 C 0.703125 -0.238281 0.726562 -0.273438 0.75 -0.328125 L 1.015625 -0.28125 C 0.984375 -0.175781 0.925781 -0.0976562 0.84375 -0.046875 C 0.769531 0.00390625 0.675781 0.03125 0.5625 0.03125 C 0.394531 0.03125 0.269531 -0.0195312 0.1875 -0.125 C 0.144531 -0.175781 0.113281 -0.234375 0.09375 -0.296875 C 0.0703125 -0.367188 0.0625 -0.441406 0.0625 -0.515625 C 0.0625 -0.609375 0.078125 -0.695312 0.109375 -0.78125 C 0.148438 -0.863281 0.203125 -0.929688 0.265625 -0.984375 C 0.335938 -1.035156 0.429688 -1.0625 0.546875 -1.0625 Z M 0.34375 -0.609375 L 0.765625 -0.609375 C 0.765625 -0.691406 0.742188 -0.75 0.703125 -0.78125 C 0.660156 -0.820312 0.609375 -0.84375 0.546875 -0.84375 C 0.484375 -0.84375 0.429688 -0.820312 0.390625 -0.78125 C 0.359375 -0.738281 0.34375 -0.679688 0.34375 -0.609375 Z M 0.34375 -0.609375 "/></g></g></g><g fill="#b19032" fill-opacity="1"><g transform="translate(22.105971, 34.208116)"><g><path d="M 0.40625 -0.5 C 0.40625 -0.425781 0.40625 -0.375 0.40625 -0.34375 C 0.414062 -0.3125 0.425781 -0.285156 0.4375 -0.265625 C 0.445312 -0.242188 0.460938 -0.222656 0.484375 -0.203125 C 0.515625 -0.191406 0.546875 -0.1875 0.578125 -0.1875 C 0.628906 -0.1875 0.671875 -0.195312 0.703125 -0.21875 C 0.742188 -0.25 0.769531 -0.285156 0.78125 -0.328125 C 0.800781 -0.359375 0.8125 -0.441406 0.8125 -0.578125 L 0.8125 -1.03125 L 1.078125 -1.03125 L 1.078125 0 L 0.828125 0 L 0.828125 -0.15625 C 0.785156 -0.09375 0.734375 -0.046875 0.671875 -0.015625 C 0.609375 0.015625 0.546875 0.03125 0.484375 0.03125 C 0.421875 0.03125 0.363281 0.0195312 0.3125 0 C 0.257812 -0.03125 0.21875 -0.0664062 0.1875 -0.109375 C 0.164062 -0.140625 0.148438 -0.175781 0.140625 -0.21875 C 0.140625 -0.257812 0.140625 -0.3125 0.140625 -0.375 L 0.140625 -1.03125 L 0.40625 -1.03125 Z M 0.40625 -0.5 "/></g></g></g><g fill="#b19032" fill-opacity="1"><g transform="translate(23.32798, 34.208116)"><g><path d="M 0.703125 -1.0625 C 0.835938 -1.0625 0.9375 -1.003906 1 -0.890625 C 1.082031 -1.003906 1.1875 -1.0625 1.3125 -1.0625 C 1.425781 -1.0625 1.507812 -1.03125 1.5625 -0.96875 C 1.625 -0.90625 1.65625 -0.8125 1.65625 -0.6875 L 1.65625 0 L 1.375 0 L 1.375 -0.625 C 1.375 -0.695312 1.363281 -0.75 1.34375 -0.78125 C 1.320312 -0.820312 1.285156 -0.84375 1.234375 -0.84375 C 1.171875 -0.84375 1.125 -0.820312 1.09375 -0.78125 C 1.0625 -0.75 1.039062 -0.703125 1.03125 -0.640625 C 1.03125 -0.585938 1.03125 -0.546875 1.03125 -0.515625 L 1.03125 0 L 0.75 0 L 0.75 -0.609375 C 0.75 -0.691406 0.738281 -0.75 0.71875 -0.78125 C 0.707031 -0.820312 0.671875 -0.84375 0.609375 -0.84375 C 0.566406 -0.84375 0.523438 -0.832031 0.484375 -0.8125 C 0.453125 -0.789062 0.429688 -0.757812 0.421875 -0.71875 C 0.398438 -0.675781 0.390625 -0.609375 0.390625 -0.515625 L 0.390625 0 L 0.125 0 L 0.125 -1.03125 L 0.375 -1.03125 L 0.375 -0.890625 C 0.425781 -0.941406 0.472656 -0.984375 0.515625 -1.015625 C 0.566406 -1.046875 0.628906 -1.0625 0.703125 -1.0625 Z M 0.703125 -1.0625 "/></g></g></g><g fill="#b19032" fill-opacity="1"><g transform="translate(25.105995, 34.208116)"><g/></g></g><g fill="#b19032" fill-opacity="1"><g transform="translate(25.662, 34.208116)"><g><path d="M 0.84375 -0.453125 L 1.09375 -1.4375 L 1.53125 -1.4375 L 1.53125 0 L 1.25 0 L 1.25 -1.125 L 0.96875 0 L 0.703125 0 L 0.40625 -1.125 L 0.40625 0 L 0.140625 0 L 0.140625 -1.4375 L 0.578125 -1.4375 Z M 0.84375 -0.453125 "/></g></g></g><g fill="#b19032" fill-opacity="1"><g transform="translate(27.328013, 34.208116)"><g><path d="M 0.546875 -1.0625 C 0.679688 -1.0625 0.78125 -1.039062 0.84375 -1 C 0.90625 -0.96875 0.941406 -0.925781 0.953125 -0.875 C 0.972656 -0.820312 0.984375 -0.75 0.984375 -0.65625 L 0.984375 -0.359375 C 0.984375 -0.265625 0.984375 -0.191406 0.984375 -0.140625 C 0.992188 -0.0976562 1.015625 -0.0507812 1.046875 0 L 0.78125 0 C 0.769531 -0.0078125 0.753906 -0.046875 0.734375 -0.109375 C 0.679688 -0.0664062 0.628906 -0.03125 0.578125 0 C 0.523438 0.0195312 0.472656 0.03125 0.421875 0.03125 C 0.316406 0.03125 0.234375 0.00390625 0.171875 -0.046875 C 0.109375 -0.109375 0.078125 -0.1875 0.078125 -0.28125 C 0.078125 -0.351562 0.09375 -0.410156 0.125 -0.453125 C 0.164062 -0.503906 0.210938 -0.539062 0.265625 -0.5625 C 0.316406 -0.582031 0.382812 -0.597656 0.46875 -0.609375 C 0.582031 -0.628906 0.664062 -0.648438 0.71875 -0.671875 L 0.71875 -0.71875 C 0.71875 -0.757812 0.703125 -0.789062 0.671875 -0.8125 C 0.648438 -0.832031 0.601562 -0.84375 0.53125 -0.84375 C 0.476562 -0.84375 0.4375 -0.832031 0.40625 -0.8125 C 0.382812 -0.789062 0.363281 -0.757812 0.34375 -0.71875 L 0.09375 -0.765625 C 0.125 -0.867188 0.171875 -0.941406 0.234375 -0.984375 C 0.304688 -1.035156 0.410156 -1.0625 0.546875 -1.0625 Z M 0.546875 -0.453125 L 0.5 -0.4375 C 0.394531 -0.414062 0.34375 -0.375 0.34375 -0.3125 C 0.34375 -0.269531 0.359375 -0.234375 0.390625 -0.203125 C 0.421875 -0.179688 0.457031 -0.171875 0.5 -0.171875 C 0.53125 -0.171875 0.5625 -0.175781 0.59375 -0.1875 C 0.632812 -0.207031 0.664062 -0.234375 0.6875 -0.265625 C 0.707031 -0.296875 0.71875 -0.347656 0.71875 -0.421875 L 0.71875 -0.5 C 0.664062 -0.476562 0.609375 -0.460938 0.546875 -0.453125 Z M 0.546875 -0.453125 "/></g></g></g><g fill="#b19032" fill-opacity="1"><g transform="translate(28.440021, 34.208116)"><g><path d="M 0.625 -1.0625 C 0.65625 -1.0625 0.6875 -1.054688 0.71875 -1.046875 C 0.75 -1.035156 0.773438 -1.023438 0.796875 -1.015625 L 0.71875 -0.765625 C 0.664062 -0.796875 0.625 -0.8125 0.59375 -0.8125 C 0.539062 -0.8125 0.5 -0.789062 0.46875 -0.75 C 0.445312 -0.71875 0.429688 -0.671875 0.421875 -0.609375 C 0.410156 -0.546875 0.40625 -0.460938 0.40625 -0.359375 L 0.40625 0 L 0.125 0 L 0.125 -1.03125 L 0.390625 -1.03125 L 0.390625 -0.890625 C 0.421875 -0.941406 0.453125 -0.984375 0.484375 -1.015625 C 0.523438 -1.046875 0.570312 -1.0625 0.625 -1.0625 Z M 0.625 -1.0625 "/></g></g></g><g fill="#b19032" fill-opacity="1"><g transform="translate(29.218027, 34.208116)"><g><path d="M 0.40625 -0.671875 L 0.734375 -1.03125 L 1.0625 -1.03125 L 0.71875 -0.65625 L 1.09375 0 L 0.796875 0 L 0.53125 -0.46875 L 0.40625 -0.328125 L 0.40625 0 L 0.140625 0 L 0.140625 -1.4375 L 0.40625 -1.4375 Z M 0.40625 -0.671875 "/></g></g></g><g fill="#b19032" fill-opacity="1"><g transform="translate(30.330036, 34.208116)"><g><path d="M 0.546875 -1.0625 C 0.703125 -1.0625 0.820312 -1.003906 0.90625 -0.890625 C 0.988281 -0.785156 1.03125 -0.632812 1.03125 -0.4375 L 0.34375 -0.4375 C 0.34375 -0.375 0.363281 -0.316406 0.40625 -0.265625 C 0.445312 -0.210938 0.5 -0.1875 0.5625 -0.1875 C 0.613281 -0.1875 0.648438 -0.195312 0.671875 -0.21875 C 0.703125 -0.238281 0.726562 -0.273438 0.75 -0.328125 L 1.015625 -0.28125 C 0.984375 -0.175781 0.925781 -0.0976562 0.84375 -0.046875 C 0.769531 0.00390625 0.675781 0.03125 0.5625 0.03125 C 0.394531 0.03125 0.269531 -0.0195312 0.1875 -0.125 C 0.144531 -0.175781 0.113281 -0.234375 0.09375 -0.296875 C 0.0703125 -0.367188 0.0625 -0.441406 0.0625 -0.515625 C 0.0625 -0.609375 0.078125 -0.695312 0.109375 -0.78125 C 0.148438 -0.863281 0.203125 -0.929688 0.265625 -0.984375 C 0.335938 -1.035156 0.429688 -1.0625 0.546875 -1.0625 Z M 0.34375 -0.609375 L 0.765625 -0.609375 C 0.765625 -0.691406 0.742188 -0.75 0.703125 -0.78125 C 0.660156 -0.820312 0.609375 -0.84375 0.546875 -0.84375 C 0.484375 -0.84375 0.429688 -0.820312 0.390625 -0.78125 C 0.359375 -0.738281 0.34375 -0.679688 0.34375 -0.609375 Z M 0.34375 -0.609375 "/></g></g></g><g fill="#b19032" fill-opacity="1"><g transform="translate(31.442044, 34.208116)"><g><path d="M 0.625 -1.0625 C 0.65625 -1.0625 0.6875 -1.054688 0.71875 -1.046875 C 0.75 -1.035156 0.773438 -1.023438 0.796875 -1.015625 L 0.71875 -0.765625 C 0.664062 -0.796875 0.625 -0.8125 0.59375 -0.8125 C 0.539062 -0.8125 0.5 -0.789062 0.46875 -0.75 C 0.445312 -0.71875 0.429688 -0.671875 0.421875 -0.609375 C 0.410156 -0.546875 0.40625 -0.460938 0.40625 -0.359375 L 0.40625 0 L 0.125 0 L 0.125 -1.03125 L 0.390625 -1.03125 L 0.390625 -0.890625 C 0.421875 -0.941406 0.453125 -0.984375 0.484375 -1.015625 C 0.523438 -1.046875 0.570312 -1.0625 0.625 -1.0625 Z M 0.625 -1.0625 "/></g></g></g></svg>