<svg xmlns="http://www.w3.org/2000/svg" xmlns:xlink="http://www.w3.org/1999/xlink" width="50" zoomAndPan="magnify" viewBox="0 0 37.5 61.499996" height="82" preserveAspectRatio="xMidYMid meet" version="1.0"><defs><clipPath id="e7edcda537"><path d="M 0 0.15625 L 37.007812 0.15625 L 37.007812 60.847656 L 0 60.847656 Z M 0 0.15625 " clip-rule="nonzero"/></clipPath><clipPath id="e5b6aa42b4"><path d="M 13.867188 23.40625 L 23.617188 23.40625 L 23.617188 38.40625 L 13.867188 38.40625 Z M 13.867188 23.40625 " clip-rule="nonzero"/></clipPath></defs><g clip-path="url(#e7edcda537)"><path fill="#ffffff" d="M 0 0.15625 L 37.5 0.15625 L 37.5 69.15625 L 0 69.15625 Z M 0 0.15625 " fill-opacity="1" fill-rule="nonzero"/><path fill="#ffffff" d="M 0 0.15625 L 37.5 0.15625 L 37.5 61.65625 L 0 61.65625 Z M 0 0.15625 " fill-opacity="1" fill-rule="nonzero"/><path fill="#ffffff" d="M 0 0.15625 L 37.5 0.15625 L 37.5 61.65625 L 0 61.65625 Z M 0 0.15625 " fill-opacity="1" fill-rule="nonzero"/></g><g clip-path="url(#e5b6aa42b4)"><path fill="#b19032" d="M 23.617188 28.304688 C 23.617188 25.609375 21.433594 23.425781 18.742188 23.425781 C 16.050781 23.425781 13.867188 25.609375 13.867188 28.304688 C 13.867188 28.355469 13.871094 28.402344 13.871094 28.449219 C 13.871094 28.558594 13.878906 28.671875 13.890625 28.789062 C 13.890625 28.8125 13.894531 28.832031 13.898438 28.855469 C 13.910156 28.953125 13.925781 29.058594 13.945312 29.164062 C 13.957031 29.238281 13.972656 29.3125 13.988281 29.382812 C 14.730469 32.691406 18.738281 38.390625 18.738281 38.390625 C 18.738281 38.390625 22.339844 33.171875 23.351562 29.882812 C 23.429688 29.644531 23.496094 29.398438 23.539062 29.144531 C 23.585938 28.894531 23.617188 28.660156 23.617188 28.449219 C 23.617188 28.433594 23.609375 28.421875 23.609375 28.40625 C 23.609375 28.371094 23.617188 28.339844 23.617188 28.304688 Z M 18.742188 30.855469 C 17.316406 30.855469 16.160156 29.695312 16.160156 28.269531 C 16.160156 26.84375 17.3125 25.6875 18.742188 25.6875 C 20.164062 25.6875 21.320312 26.84375 21.320312 28.269531 C 21.320312 29.695312 20.164062 30.855469 18.742188 30.855469 Z M 18.742188 30.855469 " fill-opacity="1" fill-rule="nonzero"/></g></svg>