<svg width="544" height="544" xmlns="http://www.w3.org/2000/svg" xmlns:xlink="http://www.w3.org/1999/xlink" xml:space="preserve" overflow="hidden"><g transform="translate(-385 -72)"><g><g><g><g><path d="M770.625 243.819C757.05 243.819 745.737 232.506 746.303 218.366 746.303 204.791 757.616 193.478 771.191 193.478 784.766 193.478 796.078 204.791 796.078 218.366 796.078 225.153 793.25 231.375 788.725 235.9 783.634 240.991 777.412 243.819 770.625 243.819ZM746.303 165.197C733.859 169.722 724.244 179.337 718.022 190.65 710.103 205.922 708.972 223.456 715.194 239.294L742.344 298.119 760.444 335.45C762.141 339.409 766.1 341.672 770.625 341.672 775.15 341.672 779.109 339.409 780.806 335.45L798.906 298.119 826.056 239.859C828.884 233.072 830.016 225.719 830.016 218.366 830.016 178.772 789.291 148.794 746.303 165.197Z" stroke="#A6862E" stroke-width="7.43836" stroke-linecap="butt" stroke-linejoin="miter" stroke-miterlimit="4" stroke-opacity="1" fill="#000000" fill-rule="nonzero" fill-opacity="1"/><path d="M646.188 484.775 555.688 439.525 555.688 255.131 646.188 300.381 646.188 484.775ZM533.062 439.525 465.188 473.463 465.188 289.069 533.062 255.131 533.062 439.525ZM846.419 249.475 832.278 280.019 849.812 289.069 849.812 473.463 781.938 439.525 781.938 364.297 759.312 364.297 759.312 439.525 668.812 484.775 668.812 300.381 708.972 280.019 694.831 249.475 657.5 268.141 544.375 211.578 431.25 268.141 431.25 528.328 544.375 471.766 657.5 528.328 770.625 471.766 883.75 528.328 883.75 268.141 846.419 249.475Z" stroke="#A6862E" stroke-width="7.43836" stroke-linecap="butt" stroke-linejoin="miter" stroke-miterlimit="4" stroke-opacity="1" fill="#000000" fill-rule="nonzero" fill-opacity="1"/></g></g></g></g></g></svg>